<svg width="45" height="45" viewBox="0 0 45 45" fill="none" xmlns="http://www.w3.org/2000/svg">
<circle opacity="0.2" cx="22.5" cy="22.5" r="22" stroke="black"/>
<g opacity="0.3">
<path d="M32 26.9999V18.9999C31.9996 18.6492 31.9071 18.3047 31.7315 18.0011C31.556 17.6974 31.3037 17.4453 31 17.2699L24 13.2699C23.696 13.0944 23.3511 13.002 23 13.002C22.6489 13.002 22.304 13.0944 22 13.2699L15 17.2699C14.6963 17.4453 14.444 17.6974 14.2685 18.0011C14.0929 18.3047 14.0004 18.6492 14 18.9999V26.9999C14.0004 27.3506 14.0929 27.6951 14.2685 27.9987C14.444 28.3024 14.6963 28.5545 15 28.7299L22 32.7299C22.304 32.9054 22.6489 32.9979 23 32.9979C23.3511 32.9979 23.696 32.9054 24 32.7299L31 28.7299C31.3037 28.5545 31.556 28.3024 31.7315 27.9987C31.9071 27.6951 31.9996 27.3506 32 26.9999Z" stroke="black" stroke-width="2" stroke-linecap="round" stroke-linejoin="round"/>
<path d="M14.2695 17.96L22.9995 23.01L31.7295 17.96" stroke="black" stroke-width="2" stroke-linecap="round" stroke-linejoin="round"/>
<path d="M23 33.08V23" stroke="black" stroke-width="2" stroke-linecap="round" stroke-linejoin="round"/>
</g>
</svg>
